<?xml version="1.0" encoding="UTF-8"?>
<svg width="566px" height="564px" viewBox="0 0 566 564" version="1.1" xmlns="http://www.w3.org/2000/svg" xmlns:xlink="http://www.w3.org/1999/xlink">
    <!-- Generator: Sketch 54.1 (76490) - https://sketchapp.com -->
    <title>Group 9</title>
    <desc>Created with Sketch.</desc>
    <g id="Page-1" stroke="none" stroke-width="1" fill="none" fill-rule="evenodd">
        <g id="Group-9" transform="translate(-19.000000, 1.000000)">
            <circle id="Oval" stroke="#C49D5E" cx="302" cy="279" r="74"></circle>
            <ellipse id="Oval" stroke="#C49D5E" stroke-width="4" cx="302.5" cy="279" rx="23.5" ry="23"></ellipse>
            <circle id="Oval" stroke="#979797" fill="#C49D5E" cx="303" cy="279" r="12"></circle>
            <path d="M148.25737,82.2104416 C190.778333,48.8716736 244.32315,29 302.5,29 C308.729033,29 314.904964,29.2278113 321.019947,29.6755726 L308.358184,206.269337 C306.26248,206.090997 304.141867,206 302,206 C284.92581,206 269.202222,211.782615 256.680832,221.496249 L148.25737,82.2104416 Z" id="Combined-Shape" fill-opacity="0.48" fill="#C49D5E"></path>
            <path d="M39.1808468,200.639026 C84.5956535,136.791338 159.101069,95.1554488 243.311695,95.1554488 C249.522626,95.1554488 255.680762,95.3819379 261.778327,95.8271231 L248.629952,272.380817 C246.710158,272.231502 244.769808,272.155449 242.811695,272.155449 C214.454721,272.155449 189.823096,288.105565 177.398965,311.523651 L39.1808468,200.639026 Z" id="Combined-Shape" fill-opacity="0.02" fill="#C49D5E" transform="translate(150.479587, 203.339550) rotate(-30.000000) translate(-150.479587, -203.339550) "></path>
            <path d="M53.4706434,252.643911 L228.045529,277.379618 C228.01526,278.249348 228,279.122892 228,280 C228,320.869071 261.130929,354 302,354 C342.869071,354 376,320.869071 376,280 C376,241.459631 346.537079,209.800696 308.90604,206.317998 L321.674692,29.7243732 C451.063284,39.5377901 553,147.840836 553,280 C553,418.623472 440.84733,531 302.5,531 C164.15267,531 52,418.623472 52,280 C52,270.756078 52.4987106,261.628868 53.4706434,252.643911 Z" id="Combined-Shape" fill="#C49D5E"></path>
            <circle id="Oval" stroke="#C49D5E" stroke-width="3" cx="302" cy="281" r="267"></circle>
            <path d="M302,562 C457.744299,562 584,436.192015 584,281 C584,125.807985 457.744299,0 302,0 C146.255701,0 20,125.807985 20,281 C20,436.192015 146.255701,562 302,562 Z" id="Oval" stroke="#C49D5E" stroke-dasharray="7"></path>
        </g>
    </g>
</svg>