<svg id="圖層_1" data-name="圖層 1" xmlns="http://www.w3.org/2000/svg" viewBox="0 0 82.28 77.35"><defs><style>.cls-1,.cls-2,.cls-3{fill:none;stroke:#c9a063;}.cls-1,.cls-2{stroke-linecap:square;}.cls-1{stroke-linejoin:round;}.cls-2,.cls-3{stroke-miterlimit:10;}.cls-3{stroke-width:0.2px;}</style></defs><title>icon</title><path class="cls-1" d="M14.63,59.53A24.16,24.16,0,1,0,27.86,13.05Z"/><path class="cls-2" d="M27.4,37.93a6.44,6.44,0,0,1-8,4.43l1.76-6.19L23,30A6.44,6.44,0,0,1,27.4,37.93Z"/><line class="cls-1" x1="67.74" y1="36.29" x2="70.86" y2="25.35"/><polyline class="cls-1" points="67.74 36.29 61.13 59.53 52.62 36.76 33.31 36.76"/><line class="cls-1" x1="33.31" y1="34.22" x2="33.31" y2="39.3"/><line class="cls-1" x1="73.4" y1="25.35" x2="68.31" y2="25.35"/><line class="cls-1" x1="63.33" y1="59.53" x2="58.25" y2="59.53"/><path class="cls-3" d="M26.3,18.52a24.27,24.27,0,0,0-4.19-1.63L8.88,63.36A24.14,24.14,0,0,0,31.64,58.1"/></svg>