<?xml version="1.0" encoding="UTF-8"?>
<svg width="788px" height="350px" viewBox="0 0 788 350" version="1.1" xmlns="http://www.w3.org/2000/svg" xmlns:xlink="http://www.w3.org/1999/xlink">
    <!-- Generator: Sketch 54.1 (76490) - https://sketchapp.com -->
    <title>Group 10</title>
    <desc>Created with Sketch.</desc>
    <g id="Page-1" stroke="none" stroke-width="1" fill="none" fill-rule="evenodd">
        <g id="Group-10" transform="translate(2.000000, 1.000000)" stroke="#FFFFFF" stroke-width="1.96">
            <path d="M63.6120041,119.636178 C81.1518748,114.507969 91.532,99.6167306 91.532,71.932 C91.532,44.0918915 81.1518748,29.8920164 63.6120041,25.0686576 L63.612,23.128 L72.628,23.128 C99.676,23.128 116.532,36.455 116.532,71.932 C116.532,107.211 99.676,121.715 72.628,121.715 L63.612,121.715 L63.612,119.636179 Z M34.604,2.84217094e-14 L34.604,145.039 L9.604,145.039 L9.604,2.84217094e-14 L34.604,2.84217094e-14 Z M145.882691,64.1131999 C145.16775,53.0206408 142.901255,43.4239534 139.230143,35.2796 L159.4541,35.2796 L185.350968,100.615736 C186.926654,106.070231 188.468119,111.638916 190.1181,117.2076 L191.0981,117.2076 C191.204757,116.780803 191.311762,116.353318 191.419085,115.925204 L202.1821,143.0796 L200.2221,149.5466 C197.0861,159.1516 190.8141,166.2076 179.6421,166.2076 C177.0941,166.2076 173.9581,165.4226 171.9981,164.8356 L166.7061,186.9826 C167.480627,187.22904 168.255154,187.45651 169.042176,187.663872 C165.34479,188.639001 161.285104,189.1386 156.7981,189.1386 C150.3301,189.1386 146.0181,188.3546 141.7061,186.9826 L146.9981,164.8356 C148.9581,165.4226 152.0941,166.2076 154.6421,166.2076 C165.8141,166.2076 172.0861,159.1516 175.2221,149.5466 L177.1821,143.0796 L145.882691,64.1131999 Z M202.169823,75.3246343 L214.0301,35.2796 L239.0301,35.2796 L223.9371,86.2396 C223.802471,86.7783263 223.667289,87.3181479 223.531613,87.8589489 L214.332817,114.531518 C211.515308,104.844803 208.957227,95.2135038 205.9061,86.2396 L202.169823,75.3246343 Z M271.9561,35.2794 L296.856285,108.285178 C298.193349,113.277193 299.543626,118.299797 300.8551,123.2834 L301.8351,123.2834 C301.854164,123.20581 301.873247,123.12821 301.892349,123.050601 L309.3921,145.0394 L284.3921,145.0394 L256.755941,64.0119182 L266.6651,35.2796 L246.956168,35.2796 L271.9561,35.2794 Z M313.846001,79.1092818 L326.7271,35.2794 L351.7271,35.2794 L335.6561,89.9634 C334.998424,92.3748798 334.330939,94.815784 333.660218,97.2773363 L325.467226,121.8125 C322.640883,111.11545 319.659763,100.270646 317.0361,89.9634 L313.846001,79.1092818 Z M429.898149,58.5268191 C433.566337,56.1028906 437.820086,54.8797 442.2777,54.8797 C450.882092,54.8797 456.717612,58.3772231 459.96197,64.4837211 C461.316017,69.0396975 462.179855,73.9660531 462.5468,79.1837 L418.3657,79.1837 L438.0537,79.1837 C438.0537,69.7851509 435.400822,62.5713249 429.898146,58.5268214 Z M429.903419,34.0883305 C408.527632,39.6983589 390.7297,60.1921581 390.7297,90.3557 C390.7297,121.332517 408.37243,141.464869 432.726797,146.527479 C428.60183,147.346454 424.400656,147.7837 420.2177,147.7837 C389.6417,147.7837 365.7297,126.4187 365.7297,90.3557 C365.7297,54.6837 390.6217,32.5357 416.8857,32.5357 C421.576736,32.5357 425.917447,33.0706565 429.903417,34.0883311 Z M461.3777,98.1957 L418.7577,98.1957 L461.3777,98.1957 Z M437.072652,123.603827 C441.087525,122.306639 444.960612,120.41238 448.8337,117.9917 L452.985117,125.463827 C451.724933,125.577149 450.443653,125.6347 449.1377,125.6347 C444.757281,125.6347 440.703711,124.952653 437.072652,123.603827 Z M511.4644,49.9314 L511.4644,145.0394 L486.4644,145.0394 L486.4644,97.8999516 C487.204653,95.2537941 487.7497,90.158747 487.7497,85.0637 C487.7497,80.0315051 487.319485,75.2251731 486.4644,70.7079484 L486.4644,35.2794 L509.9844,35.2794 L511.4644,49.9314 Z M532.15421,35.2794 C536.000891,33.4688941 539.96998,32.5354 543.8924,32.5354 C549.9684,32.5354 553.4964,33.5154 556.8284,34.8874 L556.703879,35.4956381 C549.570634,38.988873 542.883316,45.5057771 537.7284,54.6834 L536.9444,54.6834 L534.9844,35.2794 L532.15421,35.2794 Z M592.361988,124.29244 L586.5308,132.299 C594.492283,138.958434 605.447165,144.226984 616.553052,146.526752 C612.515213,147.345642 608.087976,147.783 603.2788,147.783 C588.5788,147.783 572.3108,141.316 561.5308,132.299 L574.6628,114.268 C580.619325,118.913482 586.431033,122.328388 592.361988,124.29244 Z M615.343744,123.566777 C618.471186,121.521762 619.9388,118.41349 619.9388,114.659 C619.9388,106.427 608.5708,102.703 597.0068,98.195 C583.0908,92.903 567.0188,84.476 567.0188,66.247 C567.0188,63.3983929 567.351598,60.6715409 567.994997,58.0903887 C571.190563,58.2828651 573.776218,58.8458689 576.7324,59.7794 L580.789659,39.9612493 C587.686667,35.239974 596.89817,32.535 607.7858,32.535 C612.17478,32.535 616.271317,33.0318992 620.095426,33.8940227 C602.728265,37.8462116 592.0188,50.0875572 592.0188,66.247 C592.0188,84.476 608.0908,92.903 622.0068,98.195 C633.5708,102.703 644.9388,106.427 644.9388,114.659 C644.9388,121.52 640.0378,126.223 629.0628,126.223 C624.361438,126.223 619.826896,125.305498 615.343746,123.566778 Z M638.867716,54.6283856 L632.2858,63.504 C628.890994,61.1273328 625.532572,59.0447382 622.147183,57.4472456 C624.532401,55.3335067 628.320177,54.096 633.5708,54.096 C635.361497,54.096 637.124459,54.2815347 638.867716,54.6283856 Z M726.245718,58.5269101 C729.913957,56.1029212 734.167845,54.8797 738.6259,54.8797 C747.229838,54.8797 753.065175,58.3773491 756.309404,64.4840512 C757.663338,69.0399308 758.527097,73.9661766 758.894012,79.1837 L714.7129,79.1837 L734.4009,79.1837 C734.4009,69.7852196 731.748061,62.5714304 726.245718,58.5269101 Z M726.250816,34.0882958 C704.875191,39.6982743 687.0779,60.1920959 687.0779,90.3557 C687.0779,121.332573 704.720693,141.464942 729.074495,146.527506 C724.949453,147.346464 720.748114,147.7837 716.5649,147.7837 C696.944007,147.7837 680.067053,138.985223 670.492525,123.150193 C671.485539,119.96826 671.9868,116.59147 671.9868,113.091 C671.9868,102.865243 667.942139,95.9442687 662.079675,90.8930381 C662.078492,90.71429 662.0779,90.535177 662.0779,90.3557 C662.0779,54.6837 686.9689,32.5357 713.2329,32.5357 C717.924038,32.5357 722.26481,33.0706443 726.250814,34.0882963 Z M757.7249,98.1957 L715.1049,98.1957 L757.7249,98.1957 Z M733.420109,123.603863 C737.434896,122.306675 741.307776,120.412403 745.1809,117.9917 L749.332332,125.463855 C748.072179,125.577158 746.790895,125.6347 745.4849,125.6347 C741.104521,125.6347 737.051057,124.952666 733.420109,123.603863 Z M32.5866886,317.511374 L25,326.6154 C36.0971499,337.249382 50.4666939,344.248608 65.5353436,346.753855 C61.5818077,347.427204 57.3719503,347.7834 52.92,347.7834 C33.516,347.7834 14.112,340.1384 7.10542736e-15,326.6154 L16.66,306.6234 C21.4097032,311.014178 26.8559913,314.749764 32.5866886,317.511374 Z M65.9102862,320.755933 C72.9596823,318.118499 76.636,312.928322 76.636,306.0354 C76.636,295.2564 67.816,291.9244 54.88,286.4354 L35.476,278.2034 C20.776,272.1274 6.076,260.3674 6.076,239.1994 C6.076,215.4834 26.852,197.2564 56.252,197.2564 C60.4017697,197.2564 64.5515394,197.6603 68.6252699,198.447613 C46.077849,202.857509 31.076,219.046717 31.076,239.1994 C31.076,260.3674 45.776,272.1274 60.476,278.2034 L79.88,286.4354 C92.816,291.9244 101.636,295.2564 101.636,306.0354 C101.636,316.2264 93.6,322.6954 78.508,322.6954 C74.3629977,322.6954 70.1142577,322.010625 65.9102862,320.755933 Z M94.9538915,224.269763 L87.023,234.1034 C81.5150033,229.532438 75.8664774,226.152935 69.6585371,224.174439 C72.8594611,222.848594 76.7777199,222.1474 81.252,222.1474 C86.172092,222.1474 90.6938825,222.877619 94.9538915,224.269763 Z M162.4829,213.750521 L160.0429,235.2792 L143.1869,236.6512 L143.1869,258.0162 L158.6709,258.0162 L158.6709,306.6232 C158.6709,327.156615 165.581176,341.999215 182.893534,346.419388 C178.99686,347.225433 174.618781,347.7832 169.7339,347.7832 C143.6669,347.7832 133.6709,331.3192 133.6709,306.6232 L133.6709,258.0162 L118.1869,258.0162 L118.1869,236.6512 L135.0429,235.2792 L138.3749,205.8802 L162.4829,205.8802 L162.4829,213.750521 Z M187.4829,235.2792 L189.5299,235.2792 L187.4829,235.2792 Z M189.5299,258.0162 L187.4829,258.0162 L189.5299,258.0162 Z M210.6983,258.0162 L214.5299,258.0162 L214.5299,235.2792 L210.6983,235.2792 L235.6983,235.279 L235.6983,303.879 C235.6983,325.87706 242.248581,340.820971 256.964905,345.883152 C253.131292,347.118942 248.977192,347.783 244.4103,347.783 C228.77234,347.783 219.026215,340.504852 214.250193,327.561585 L213.1589,322.6952 C213.038066,322.743517 212.914919,322.791835 212.789608,322.84007 C211.377423,317.314006 210.6983,310.962185 210.6983,303.879 L210.6983,258.0162 Z M268.549209,318.512842 C271.364528,316.342416 274.12432,313.337244 277.1413,309.367 L277.1413,235.279 L302.1413,235.279 L302.1413,309.367 C294.6943,319.167 288.8143,323.087 279.7983,323.087 C274.756884,323.087 271.049551,321.752918 268.549209,318.512842 Z M305.9533,334.270369 L305.9533,345.039 L284.31541,345.039 C292.08239,341.957753 298.524754,336.447402 304.4933,329.359 L305.2783,329.359 L305.9533,334.270369 Z M396.782239,259.832895 C400.062385,257.463144 403.822788,256.2524 407.785,256.2524 C414.645,256.2524 421.505,258.4074 428.169,264.4834 L428.169,312.6994 C421.897,320.9314 415.429,324.0674 407.785,324.0674 C402.952756,324.0674 398.816703,322.805555 395.449324,320.281864 C398.096594,318.492489 400.648622,316.007396 403.169,312.6994 L403.169,264.4834 C401.057676,262.558369 398.926678,261.026922 396.782239,259.832895 Z M330.953299,281.254973 C334.378234,250.809831 354.874541,232.5354 376.513,232.5354 C381.341404,232.5354 385.450556,233.254805 389.133421,234.564591 C370.570065,240.765194 355.453,260.85279 355.453,290.3554 C355.453,319.838674 367.372551,339.655219 386.748088,345.775274 C383.057845,347.051523 379.220294,347.7834 375.337,347.7834 C350.761888,347.7834 334.00128,330.239823 330.953299,300.477566 L330.9533,281.254964 Z M403.532708,232.578788 L403.169,227.2444 L403.169,188.6324 L428.169,188.6324 L428.169,227.2444 L429.345,244.4924 C421.941532,237.644192 414.712845,233.067246 403.532708,232.578788 Z M431.981,336.938733 L431.981,345.0394 L413.713213,345.0394 C420.068076,342.47781 425.917006,338.354321 430.717,333.6714 L431.305,333.6714 L431.981,336.938733 Z M487.9481,235.2798 L487.9481,345.0398 L462.9481,345.0398 L462.9481,235.2798 L487.9481,235.2798 Z M489.865505,190.787309 C486.932786,193.520443 485.2041,197.365971 485.2041,201.9588 C485.2041,206.361217 486.932786,210.202741 489.865505,212.981648 C486.81536,215.894477 482.467394,217.6398 477.4521,217.6398 C467.4561,217.6398 460.2041,210.9758 460.2041,201.9588 C460.2041,192.5518 467.4561,186.2798 477.4521,186.2798 C482.467394,186.2798 486.81536,187.922457 489.865505,190.787309 Z M580.8933,260.198653 C584.318144,257.510407 588.507859,256.0556 593.3933,256.0556 C608.2893,256.0556 616.7173,269.5806 616.7173,290.3556 C616.7173,310.9356 608.2893,324.2636 593.3933,324.2636 C588.507859,324.2636 584.318144,322.829983 580.8933,320.177097 C587.91101,314.741176 591.7173,304.185978 591.7173,290.3556 C591.7173,276.394176 587.91101,265.707029 580.8933,260.198653 Z M516.5641,278.781364 C521.282854,249.284333 543.985132,232.5356 568.3933,232.5356 C572.640203,232.5356 576.835438,233.042657 580.893268,234.035697 C558.732515,239.458868 540.6693,259.376249 540.6693,290.3556 C540.6693,321.003621 558.732515,340.869722 580.893268,346.284956 C576.835438,347.276543 572.640203,347.7836 568.3933,347.7836 C543.985132,347.7836 521.282854,331.034867 516.5641,301.813728 L516.5641,278.781364 Z" id="Combined-Shape"></path>
            <g id="Group-8-Copy" transform="translate(25.000000, 0.000000)">
                <path d="M47.628,121.715 C74.676,121.715 91.532,107.211 91.532,71.932 C91.532,36.455 74.676,23.128 47.628,23.128 L38.612,23.128 L38.612,121.715 L47.628,121.715 Z M9.604,0 L49.392,0 C93.688,0 121.128,22.932 121.128,71.932 C121.128,120.736 93.688,145.039 50.96,145.039 L9.604,145.039 L9.604,0 Z" id="Stroke-29"></path>
                <path d="M141.7061,186.9826 L146.9981,164.8356 C148.9581,165.4226 152.0941,166.2076 154.6421,166.2076 C165.8141,166.2076 172.0861,159.1516 175.2221,149.5466 L177.1821,143.0796 L134.4541,35.2796 L163.4621,35.2796 L180.9061,86.2396 C184.2381,96.0396 186.9821,106.6236 190.1181,117.2076 L191.0981,117.2076 C193.6451,107.0156 196.3901,96.4316 198.9371,86.2396 L214.0301,35.2796 L241.6651,35.2796 L202.6621,148.3716 C193.0581,174.2436 181.2981,189.1386 156.7981,189.1386 C150.3301,189.1386 146.0181,188.3546 141.7061,186.9826 Z" id="Stroke-30"></path>
                <path d="M246.9561,35.2794 L275.9641,35.2794 L292.0361,89.9634 C294.7801,100.7434 297.9151,112.1114 300.8551,123.2834 L301.8351,123.2834 C304.5801,112.1114 307.7161,100.7434 310.6561,89.9634 L326.7271,35.2794 L354.3631,35.2794 L317.7111,145.0394 L284.3921,145.0394 L246.9561,35.2794 Z" id="Stroke-31"></path>
                <path d="M438.0537,79.1837 C438.0537,64.2877 431.3897,54.8797 417.2777,54.8797 C405.7137,54.8797 395.5217,63.1117 393.3657,79.1837 L438.0537,79.1837 Z M365.7297,90.3557 C365.7297,54.6837 390.6217,32.5357 416.8857,32.5357 C447.0697,32.5357 462.7497,54.6837 462.7497,85.0637 C462.7497,90.3557 462.1617,95.6477 461.3777,98.1957 L393.7577,98.1957 C396.1097,116.2277 407.8697,125.6347 424.1377,125.6347 C433.1537,125.6347 440.9937,122.8917 448.8337,117.9917 L458.6337,135.6307 C447.8537,143.0797 433.9377,147.7837 420.2177,147.7837 C389.6417,147.7837 365.7297,126.4187 365.7297,90.3557 Z" id="Stroke-32"></path>
                <path d="M486.4644,35.2794 L509.9844,35.2794 L511.9444,54.6834 L512.7284,54.6834 C520.7644,40.3764 532.5244,32.5354 543.8924,32.5354 C549.9684,32.5354 553.4964,33.5154 556.8284,34.8874 L551.7324,59.7794 C548.0084,58.6034 544.8724,58.0154 540.3644,58.0154 C531.7404,58.0154 521.3524,63.6994 515.0804,79.5754 L515.0804,145.0394 L486.4644,145.0394 L486.4644,35.2794 Z" id="Stroke-33"></path>
                <path d="M561.5308,132.299 L574.6628,114.268 C584.4628,121.911 593.8708,126.223 604.0628,126.223 C615.0378,126.223 619.9388,121.52 619.9388,114.659 C619.9388,106.427 608.5708,102.703 597.0068,98.195 C583.0908,92.903 567.0188,84.476 567.0188,66.247 C567.0188,46.451 583.0908,32.535 607.7858,32.535 C623.8588,32.535 636.0098,39.199 645.2218,46.06 L632.2858,63.504 C624.4468,58.016 616.8018,54.096 608.5708,54.096 C598.7708,54.096 594.0668,58.407 594.0668,64.68 C594.0668,72.716 604.8458,75.655 616.4098,79.968 C630.9148,85.455 646.9868,92.707 646.9868,113.091 C646.9868,132.299 631.8938,147.783 603.2788,147.783 C588.5788,147.783 572.3108,141.316 561.5308,132.299 Z" id="Stroke-34"></path>
                <path d="M734.4009,79.1837 C734.4009,64.2877 727.7369,54.8797 713.6259,54.8797 C702.0609,54.8797 691.8699,63.1117 689.7129,79.1837 L734.4009,79.1837 Z M662.0779,90.3557 C662.0779,54.6837 686.9689,32.5357 713.2329,32.5357 C743.4179,32.5357 759.0969,54.6837 759.0969,85.0637 C759.0969,90.3557 758.5089,95.6477 757.7249,98.1957 L690.1049,98.1957 C692.4579,116.2277 704.2169,125.6347 720.4849,125.6347 C729.5019,125.6347 737.3409,122.8917 745.1809,117.9917 L754.9809,135.6307 C744.2019,143.0797 730.2859,147.7837 716.5649,147.7837 C685.9899,147.7837 662.0779,126.4187 662.0779,90.3557 Z" id="Stroke-35"></path>
                <path d="M7.10542736e-15,326.6154 L16.66,306.6234 C27.048,316.2264 40.768,322.6954 53.508,322.6954 C68.6,322.6954 76.636,316.2264 76.636,306.0354 C76.636,295.2564 67.816,291.9244 54.88,286.4354 L35.476,278.2034 C20.776,272.1274 6.076,260.3674 6.076,239.1994 C6.076,215.4834 26.852,197.2564 56.252,197.2564 C73.108,197.2564 89.964,203.9204 101.724,215.8754 L87.023,234.1034 C77.812,226.4594 68.208,222.1474 56.252,222.1474 C43.512,222.1474 35.28,227.8324 35.28,237.4354 C35.28,247.8234 45.668,251.5474 58.016,256.4474 L77.028,264.4834 C94.667,271.7354 106.231,282.9074 106.231,303.8794 C106.231,327.5954 86.436,347.7834 52.92,347.7834 C33.516,347.7834 14.112,340.1384 7.10542736e-15,326.6154 Z" id="Stroke-36"></path>
                <path d="M133.6709,306.6232 L133.6709,258.0162 L118.1869,258.0162 L118.1869,236.6512 L135.0429,235.2792 L138.3749,205.8802 L162.4829,205.8802 L162.4829,235.2792 L189.5299,235.2792 L189.5299,258.0162 L162.4829,258.0162 L162.4829,306.6232 C162.4829,319.1672 167.5789,325.0472 177.3789,325.0472 C180.9069,325.0472 185.2179,323.8712 188.1589,322.6952 L192.8619,343.6672 C186.9829,345.6272 179.3379,347.7832 169.7339,347.7832 C143.6669,347.7832 133.6709,331.3192 133.6709,306.6232 Z" id="Stroke-37"></path>
                <path d="M210.6983,303.879 L210.6983,235.279 L239.5103,235.279 L239.5103,300.155 C239.5103,317.207 244.2143,323.087 254.7983,323.087 C263.8143,323.087 269.6943,319.167 277.1413,309.367 L277.1413,235.279 L305.9533,235.279 L305.9533,345.039 L282.4333,345.039 L280.2783,329.359 L279.4933,329.359 C270.0863,340.531 259.5023,347.783 244.4103,347.783 C220.8903,347.783 210.6983,331.319 210.6983,303.879 Z" id="Stroke-38"></path>
                <path d="M403.169,312.6994 L403.169,264.4834 C396.505,258.4074 389.645,256.2524 382.785,256.2524 C370.437,256.2524 360.049,268.0114 360.049,289.9634 C360.049,312.6994 368.281,324.0674 382.785,324.0674 C390.429,324.0674 396.897,320.9314 403.169,312.6994 Z M330.453,290.3554 C330.453,254.4874 352.797,232.5354 376.513,232.5354 C388.861,232.5354 396.505,237.2404 404.345,244.4924 L403.169,227.2444 L403.169,188.6324 L431.981,188.6324 L431.981,345.0394 L408.657,345.0394 L406.305,333.6714 L405.717,333.6714 C397.681,341.5114 386.705,347.7834 375.337,347.7834 C348.093,347.7834 330.453,326.2224 330.453,290.3554 Z" id="Stroke-39"></path>
                <path d="M462.9481,345.0398 L491.5641,345.0398 L491.5641,235.2798 L462.9481,235.2798 L462.9481,345.0398 Z M460.2041,201.9588 C460.2041,192.5518 467.4561,186.2798 477.4521,186.2798 C487.2521,186.2798 494.5041,192.5518 494.5041,201.9588 C494.5041,210.9758 487.2521,217.6398 477.4521,217.6398 C467.4561,217.6398 460.2041,210.9758 460.2041,201.9588 Z" id="Stroke-40"></path>
                <path d="M591.7173,290.3556 C591.7173,269.5806 583.2893,256.0556 568.3933,256.0556 C553.4973,256.0556 545.0693,269.5806 545.0693,290.3556 C545.0693,310.9356 553.4973,324.2636 568.3933,324.2636 C583.2893,324.2636 591.7173,310.9356 591.7173,290.3556 Z M515.6693,290.3556 C515.6693,253.7036 540.9533,232.5356 568.3933,232.5356 C595.8333,232.5356 621.1163,253.7036 621.1163,290.3556 C621.1163,326.6156 595.8333,347.7836 568.3933,347.7836 C540.9533,347.7836 515.6693,326.6156 515.6693,290.3556 Z" id="Stroke-41"></path>
            </g>
        </g>
    </g>
</svg>