<?xml version="1.0" encoding="utf-8"?>
<!-- Generator: Adobe Illustrator 23.0.2, SVG Export Plug-In . SVG Version: 6.00 Build 0)  -->
<svg version="1.1" id="圖層_1" xmlns="http://www.w3.org/2000/svg" xmlns:xlink="http://www.w3.org/1999/xlink" x="0px" y="0px"
	 viewBox="0 0 300 300" style="enable-background:new 0 0 300 300;" xml:space="preserve">
<style type="text/css">
	.st0{fill:#FFFFFF;}
</style>
<circle cx="148.7" cy="151.3" r="151.3"/>
<g>
	<path class="st0" d="M148.8,66.9c1.3-18.7,19.7-33.9,38.2-32.9c10.7,0.3,21.2,4.6,29.5,11.3c5.5,4.3,7.5,12.9,3.8,18.9
		c-4.2,6.1-13.7,5.8-19.1,1.5c-5.1-3.9-11.5-7.5-18.2-6c-5.8,1.3-8.5,7.9-7.5,13.3c0.9,5.5,2.7,10.7,4.1,16.1
		c10.5,0.4,20.9,3.1,30.1,8.2c15.3,8.8,28.5,22,35.7,38.3c6.9,15.1,8.4,32.3,5.6,48.6c-3.9,21.2-16.1,40.4-32.6,54
		c-18.8,15.4-43.3,22.9-67.4,22.7c-22.6,0-45.1-8.1-62.7-22.2c-23.7-18.7-38.9-47.6-40.6-77.7c-1.5-21.1,3.9-42.4,14.7-60.5
		c12.4-20.9,32.1-37.4,55-45.8c3.9-1.3,8.5-1.2,12.1,0.8c5.7,3,8.1,11.1,4.6,16.6c-1.9,3.5-5.4,5.7-9.1,7
		c-18.8,7.2-34.6,21.8-43.4,39.8c-7.3,14.5-9.8,31.2-7.5,47.2c2.9,21.1,14.5,40.8,31.4,53.6C119,230,136,235.9,153,235.4
		c19.6-0.1,39.5-6.9,53.6-20.7c10.2-10.1,17.7-23.2,19.4-37.6c2.4-15.5-1.8-32-12.2-43.9c-7.2-8.1-16.3-15.2-27-17.7
		c2.5,7.7,4.9,15.6,7.1,23.4c3.1,11.6,3.2,24.6-2.7,35.3c-6.3,12.1-18.6,20.9-32.1,22.8c-12.8,2.2-26.5-2.2-35.7-11.3
		c-8.9-8.5-14-20.6-14.5-32.8c-0.9-11.6,1.5-23.5,7.6-33.5c8.1-13.7,22.2-23.1,37.3-27.4C151.9,83.7,148.2,75.6,148.8,66.9
		 M135.7,138.8c-2.8,9.9-1.9,22.2,6.2,29.4c7.6,6.9,20.7,4.1,25.7-4.6c3.1-4.8,3.2-10.9,2.1-16.4c-2.8-10.3-6-20.6-9.3-30.8
		C149.6,119.9,139,127.4,135.7,138.8z"/>
</g>
</svg>
