<svg id="service_2" data-name="圖層 1" xmlns="http://www.w3.org/2000/svg" viewBox="0 0 93.14 93.85">
   <defs>
      <style>.s2cls-1,.s2cls-5{fill:none;}.s2cls-1,.s2cls-3,.s2cls-5{stroke:#fff;}.s2cls-1,.s2cls-3,.s2cls-4,.s2cls-5{stroke-miterlimit:10;}.s2cls-1{stroke-width:1.5px;}.s2cls-2,.s2cls-4{fill:#fff;}.s2cls-3{fill:#c9a063;}.s2cls-4{stroke:#c9a063;}</style>
   </defs>
   <title>網站設計</title>
   <rect class="s2cls-1" x="12.37" y="43.64" width="64.51" height="39.21"/>
   <polygon class="s2cls-1" points="74.4 22.98 13.19 43.64 9.86 32.87 71.08 12.21 74.4 22.98"/>
   <polygon class="s2cls-2" points="16.04 30.79 22.23 40.59 29.4 38.17 23.37 28.31 16.04 30.79"/>
   <polygon class="s2cls-2" points="30.82 25.8 37.01 35.6 44.17 33.19 38.14 23.33 30.82 25.8"/>
   <polygon class="s2cls-2" points="45.05 21 51.24 30.8 58.41 28.38 52.38 18.52 45.05 21"/>
   <polygon class="s2cls-2" points="59.83 16.01 66.02 25.81 73.18 23.4 67.15 13.54 59.83 16.01"/>
   <circle class="s2cls-3" cx="30.77" cy="63.55" r="7.85"/>
   <circle class="s2cls-4" cx="30.77" cy="63.55" r="3.91"/>
   <circle class="s2cls-4" cx="57.88" cy="63.55" r="3.91"/>
   <polygon class="s2cls-2" points="70.08 59 74.4 47.53 85.23 50.06 77.88 43.92 85.23 30.88 72.6 39.74 67.92 30.4 65.89 41.6 53.39 39.98 62.84 47.38 59.83 58.57 67.92 51.35 70.08 59"/>
   <line class="s2cls-5" x1="12.37" y1="48.03" x2="76.88" y2="48.03"/>
</svg>